<?xml version="1.0" encoding="UTF-8"?>
<svg width="36.77mm" height="36.77mm" version="1.1" viewBox="0 0 36.77 36.77" xmlns="http://www.w3.org/2000/svg" xmlns:cc="http://creativecommons.org/ns#" xmlns:dc="http://purl.org/dc/elements/1.1/" xmlns:rdf="http://www.w3.org/1999/02/22-rdf-syntax-ns#" xmlns:xlink="http://www.w3.org/1999/xlink">
 <defs>
  <filter id="filter830" x="-.036" y="-.036" width="1.072" height="1.072" color-interpolation-filters="sRGB">
   <feGaussianBlur stdDeviation="0.50799997"/>
  </filter>
  <linearGradient id="linearGradient856" x1="47.775" x2="47.715" y1="76.357" y2="93.838" gradientTransform="matrix(.95559 0 0 1 2.0479 0)" gradientUnits="userSpaceOnUse">
   <stop stop-color="#00bcd4" offset="0"/>
   <stop stop-color="#48aba2" offset="1"/>
  </linearGradient>
 </defs>
 <metadata>
  <rdf:RDF>
   <cc:Work rdf:about="">
    <dc:format>image/svg+xml</dc:format>
    <dc:type rdf:resource="http://purl.org/dc/dcmitype/StillImage"/>
    <dc:title/>
   </cc:Work>
  </rdf:RDF>
 </metadata>
 <g transform="translate(-20.471 -68.158)">
  <circle cx="38.856" cy="86.543" r="8.7027" fill="#fff" stroke="#263238" stroke-width="2.888"/>
  <circle transform="matrix(1.0128 0 0 1.0128 -.49791 -1.109)" cx="38.856" cy="86.543" r="16.933" filter="url(#filter830)" stroke-width=".13783"/>
  <circle cx="38.856" cy="86.543" r="16.933" fill="#fff" stroke-width=".13783"/>
  <g>
   <rect x="46.111" y="76.357" width="2.8827" height="20.328" fill="url(#linearGradient856)"/>
   <path transform="scale(.26458)" d="m119.76 299.99a38.349 38.349 0 0 0-11.25 27.1 38.349 38.349 0 0 0 11.25 27.1l27.1-27.1z" fill="#455a64"/>
   <path transform="scale(.26458)" d="m119.76 299.99 27.1 27.1 27.1-27.1a38.349 38.349 0 0 0-27.1-11.25 38.349 38.349 0 0 0-27.1 11.25z" fill="#546e7a"/>
   <path transform="scale(.26458)" d="m146.86 327.09-27.1 27.1a38.349 38.349 0 0 0 27.1 11.248 38.349 38.349 0 0 0 27.1-11.248z" fill="#37474f"/>
   <path transform="scale(.26458)" d="m146.86 327.09 27.1 27.1a38.349 38.349 0 0 0 11.25-27.1 38.349 38.349 0 0 0-11.25-27.1z" fill="#263238"/>
  </g>
  <circle cx="38.856" cy="86.543" r="7.2022" fill="#fff" stroke-width=".23519"/>
 </g>
</svg>
